<svg viewBox="0 0 100 100" style="background-color: #d3ffd3" width="96" height="96">
  <!-- mask -->
  <!-- <circle cx="50" cy="50" r="40" fill="lime"></circle> -->

  <!-- board -->
  <rect x="26" y="20" rx="1" ry="1" width="48" height="60" fill="white" stroke="black"
    stroke-width="1" />

  <!-- item 1 -->
  <rect x="32" y="30" rx="1" ry="1" width="10" height="10" fill="#3ddf3d" stroke="black"
    stroke-width="1" />
  <path d="M34,35.5 37,37.5 40,32" fill="none" stroke="white"></path>
  <line x1="47" y1="35" x2="65" y2="35" stroke-width="2" stroke="black" />

  <!-- item 2 -->
  <rect x="32" y="45" rx="1" ry="1" width="10" height="10" fill="#3ddf3d" stroke="black"
    stroke-width="1" />
  <path d="M34,50.5 37,52.5 40,47" fill="none" stroke="white"></path>
  <line x1="47" y1="50" x2="65" y2="50" stroke-width="2" stroke="black" />

  <!-- item 3 -->
  <rect x="32" y="60" rx="1" ry="1" width="10" height="10" fill="white" stroke="black"
    stroke-width="1" />
  <line x1="47" y1="65" x2="65" y2="65" stroke-width="2" stroke="black" />

  <!-- pencil -->
  <path d="M54,70 57,72 53.5,74Z" fill="black" stroke="black" storke-width="1" />
  <path d="M54,69 56,62 64,67 58,71.5Z" fill="orange" stroke="black" storke-width="1" />
  <path d="M56.3,61.1 72,37 80,42 64.7,66.3Z" fill="yellow" stroke="black" storke-width="1" />
  <path d="M72.3,36.5 75,32 83,37 80.3,41.5Z" fill="gray" stroke="black" storke-width="1" />
  <path d="M75,32 77,29 85,34 83,37Z" fill="pink" stroke="black" storke-width="1" />
</svg>